<?xml version="1.0" encoding="utf-8"?>
<!-- Generator: Adobe Illustrator 16.0.0, SVG Export Plug-In . SVG Version: 6.00 Build 0)  -->
<!DOCTYPE svg PUBLIC "-//W3C//DTD SVG 1.1//EN" "http://www.w3.org/Graphics/SVG/1.1/DTD/svg11.dtd">
<svg xmlns="http://www.w3.org/2000/svg" xmlns:xlink="http://www.w3.org/1999/xlink" version="1.1" id="Layer_1" x="0px" y="0px" width="1400px" height="1568px" viewBox="0 0 1400 1568" enable-background="new 0 0 1400 1568" xml:space="preserve">
<g>
	
	<g>
		<g>
			<polygon fill="#B7C2FF" points="204.2,109.2 120.1,193.3 120.1,759.9 653.9,759.9 653.9,109.2    "/>
			<path d="M653.9,765.4H120.1c-3,0-5.5-2.5-5.5-5.5V193.3c0-1.5,0.6-2.8,1.6-3.9l84.1-84.1c1-1,2.4-1.6,3.9-1.6h449.7     c3,0,5.5,2.5,5.5,5.5v650.7C659.4,762.9,656.9,765.4,653.9,765.4z M125.6,754.4h522.8V114.7H206.5l-80.9,80.9V754.4z"/>
		</g>
		<g>
			<rect x="692.3" y="109.2" fill="#F1F2F2" width="38.4" height="650.7"/>
			<path d="M730.7,765.4h-38.4c-3,0-5.5-2.5-5.5-5.5V109.2c0-3,2.5-5.5,5.5-5.5h38.4c3,0,5.5,2.5,5.5,5.5v650.7     C736.1,762.9,733.7,765.4,730.7,765.4z M697.8,754.4h27.4V114.7h-27.4V754.4z"/>
		</g>
		<g>
			<rect x="653.9" y="109.2" fill="#E6E7E8" width="38.4" height="650.7"/>
			<path d="M692.3,765.4h-38.4c-3,0-5.5-2.5-5.5-5.5V109.2c0-3,2.5-5.5,5.5-5.5h38.4c3,0,5.5,2.5,5.5,5.5v650.7     C697.8,762.9,695.3,765.4,692.3,765.4z M659.4,754.4h27.4V114.7h-27.4V754.4z"/>
		</g>
	</g>
	<g>
		<path fill="#FF9787" d="M653.9,308l-130.6,48.6c0,0,4.4,186.9,130.6,248.4c126.2-61.5,130.6-248.4,130.6-248.4L653.9,308z"/>
		<path d="M653.9,610.5c-0.8,0-1.6-0.2-2.4-0.6C523.7,547.7,518,364.5,517.8,356.7c-0.1-2.3,1.4-4.5,3.6-5.3L652,302.8    c1.2-0.4,2.6-0.4,3.8,0l130.6,48.6c2.2,0.8,3.6,2.9,3.6,5.3c-0.2,7.8-5.9,191-133.7,253.2C655.5,610.3,654.7,610.5,653.9,610.5z     M529,360.3c1.6,26.6,15.3,183,124.9,238.5C763.5,543.3,777.3,387,778.8,360.3l-124.9-46.5L529,360.3z"/>
	</g>
	<g>
		<path fill="#FFFFFF" d="M694.8,428.3c0-22.6-18.3-41-41-41c-22.6,0-41,18.3-41,41c0,17.2,10.6,31.9,25.6,38v59.4h30.7v-59.4    C684.2,460.1,694.8,445.5,694.8,428.3z"/>
		<path d="M669.2,531.1h-30.7c-3,0-5.5-2.5-5.5-5.5v-55.8c-15.7-7.9-25.6-23.8-25.6-41.5c0-25.6,20.8-46.4,46.5-46.4    c25.6,0,46.4,20.8,46.4,46.4c0,17.7-9.9,33.6-25.6,41.5v55.8C674.7,528.6,672.3,531.1,669.2,531.1z M644,520.1h19.8v-53.9    c0-2.2,1.3-4.2,3.4-5.1c13.5-5.5,22.2-18.4,22.2-32.9c0-19.6-15.9-35.5-35.5-35.5c-19.6,0-35.5,15.9-35.5,35.5    c0,14.5,8.7,27.4,22.2,32.9c2.1,0.8,3.4,2.8,3.4,5.1V520.1z"/>
	</g>
	<g>
		<path d="M593,336.1c-1.4,0-2.8-0.5-3.9-1.6l-88.7-88.7H355.9c-3,0-5.5-2.5-5.5-5.5c0-3,2.5-5.5,5.5-5.5h146.7    c1.5,0,2.8,0.6,3.9,1.6l90.3,90.4c2.1,2.1,2.1,5.6,0,7.8C595.8,335.6,594.4,336.1,593,336.1z"/>
	</g>
	<g>
		<path d="M523.3,362.1H440c-1.5,0-2.8-0.6-3.9-1.6l-49.9-49.9H211.5c-3,0-5.5-2.5-5.5-5.5c0-3,2.5-5.5,5.5-5.5h177    c1.5,0,2.8,0.6,3.9,1.6l49.9,49.9h81c3,0,5.5,2.5,5.5,5.5C528.8,359.6,526.3,362.1,523.3,362.1z"/>
	</g>
	<g>
		<path d="M536.9,447.9H387c-1.5,0-2.8-0.6-3.9-1.6l-49.7-49.7h-54.2c-3,0-5.5-2.5-5.5-5.5s2.5-5.5,5.5-5.5h56.5    c1.5,0,2.8,0.6,3.9,1.6l49.7,49.7h147.6c3,0,5.5,2.5,5.5,5.5C542.3,445.5,539.9,447.9,536.9,447.9z"/>
	</g>
	<g>
		<path d="M264.4,606.7h-60.2c-3,0-5.5-2.5-5.5-5.5c0-3,2.5-5.5,5.5-5.5h57.9l89.9-89.9c1-1,2.4-1.6,3.9-1.6h206.1    c3,0,5.5,2.5,5.5,5.5c0,3-2.5,5.5-5.5,5.5H358.2l-89.9,89.9C267.3,606.1,265.9,606.7,264.4,606.7z"/>
	</g>
	<g>
		<path fill="#FFE4C4" d="M356.4,240.3c0,14.8-12,26.8-26.8,26.8c-14.8,0-26.8-12-26.8-26.8s12-26.8,26.8-26.8    C344.4,213.5,356.4,225.5,356.4,240.3z"/>
		<path d="M329.7,272.5c-17.8,0-32.2-14.5-32.2-32.2s14.5-32.2,32.2-32.2s32.2,14.5,32.2,32.2S347.4,272.5,329.7,272.5z M329.7,219    c-11.7,0-21.3,9.5-21.3,21.3c0,11.7,9.5,21.3,21.3,21.3c11.7,0,21.3-9.5,21.3-21.3C350.9,228.6,341.4,219,329.7,219z"/>
	</g>
	<g>
		<path fill="#FFE4C4" d="M211.5,305.1c0,14.8-12,26.8-26.8,26.8c-14.8,0-26.8-12-26.8-26.8s12-26.8,26.8-26.8    C199.6,278.3,211.5,290.3,211.5,305.1z"/>
		<path d="M184.8,337.3c-17.8,0-32.2-14.5-32.2-32.2c0-17.8,14.5-32.2,32.2-32.2c17.8,0,32.2,14.5,32.2,32.2    C217,322.9,202.6,337.3,184.8,337.3z M184.8,283.8c-11.7,0-21.3,9.5-21.3,21.3c0,11.7,9.5,21.3,21.3,21.3    c11.7,0,21.3-9.5,21.3-21.3C206.1,293.4,196.5,283.8,184.8,283.8z"/>
	</g>
	<g>
		<path fill="#FFE4C4" d="M279.2,391.1c0,14.8-12,26.8-26.8,26.8c-14.8,0-26.8-12-26.8-26.8c0-14.8,12-26.8,26.8-26.8    C267.2,364.4,279.2,376.4,279.2,391.1z"/>
		<path d="M252.4,423.4c-17.8,0-32.2-14.5-32.2-32.2c0-17.8,14.5-32.2,32.2-32.2s32.2,14.5,32.2,32.2    C284.7,408.9,270.2,423.4,252.4,423.4z M252.4,369.9c-11.7,0-21.3,9.5-21.3,21.3c0,11.7,9.5,21.3,21.3,21.3    c11.7,0,21.3-9.5,21.3-21.3C273.7,379.4,264.1,369.9,252.4,369.9z"/>
	</g>
	<g>
		<path fill="#FFE4C4" d="M440.5,598.1c0,14.8-12,26.8-26.8,26.8c-14.8,0-26.8-12-26.8-26.8c0-14.8,12-26.8,26.8-26.8    C428.5,571.4,440.5,583.3,440.5,598.1z"/>
		<path d="M413.8,630.4c-17.8,0-32.2-14.5-32.2-32.2s14.5-32.2,32.2-32.2c17.8,0,32.2,14.5,32.2,32.2S431.5,630.4,413.8,630.4z     M413.8,576.8c-11.7,0-21.3,9.5-21.3,21.3s9.5,21.3,21.3,21.3c11.7,0,21.3-9.5,21.3-21.3S425.5,576.8,413.8,576.8z"/>
	</g>
	<g>
		<path fill="#FFE4C4" d="M204.2,601.2c0,14.8-12,26.8-26.8,26.8c-14.8,0-26.8-12-26.8-26.8c0-14.8,12-26.8,26.8-26.8    C192.2,574.4,204.2,586.4,204.2,601.2z"/>
		<path d="M177.5,633.4c-17.8,0-32.2-14.5-32.2-32.2s14.5-32.2,32.2-32.2s32.2,14.5,32.2,32.2S195.3,633.4,177.5,633.4z     M177.5,579.9c-11.7,0-21.3,9.5-21.3,21.3s9.5,21.3,21.3,21.3c11.7,0,21.3-9.5,21.3-21.3S189.2,579.9,177.5,579.9z"/>
	</g>
	<g>
		<path d="M549.2,603.6H441.4c-3,0-5.5-2.5-5.5-5.5c0-3,2.5-5.5,5.5-5.5h105.5l41.1-41.1c2.1-2.1,5.6-2.1,7.8,0    c2.1,2.1,2.1,5.6,0,7.8L553.1,602C552,603,550.6,603.6,549.2,603.6z"/>
	</g>
	<g>
		<g>
			<path fill="#FADFC0" d="M1203.7,550.9c-43.1-7-57.4,57.2-61.5,83.7c20.9-3.4,42.5-9.5,61.5-19.9V550.9z"/>
			<path d="M1142.2,640.1c-1.4,0-2.8-0.6-3.9-1.6c-1.2-1.2-1.8-3-1.6-4.7c4.3-28.2,19.7-96.3,67.8-88.3c2.7,0.4,4.6,2.7,4.6,5.4     v63.8c0,2-1.1,3.8-2.9,4.8c-17.6,9.6-38.9,16.5-63.2,20.5C1142.8,640.1,1142.5,640.1,1142.2,640.1z M1197.2,555.8     c-30.6,0-43.5,45.6-48.4,72c18.7-3.6,35.2-9.1,49.3-16.4v-55.6C1197.9,555.8,1197.6,555.8,1197.2,555.8z"/>
		</g>
		<g>
			<path fill="#FFE4C4" d="M1243.4,580.1c-10.5,15-24.3,26.2-39.7,34.6c-19,10.4-40.5,16.5-61.5,19.9c-50.5,8.2-97.5,1-97.5,1     l-13.8-3.4l62.8-37.4c14.5-8.7,19.3-27.5,10.7-42c-8.7-14.6-27.5-19.3-42-10.7l-116.2,69.1l-5.3-1.3h-64.6v97.7h181.7     c180.5,0,240.1-127.5,240.1-127.5C1269.1,559.4,1243.4,580.1,1243.4,580.1z"/>
			<path d="M1057.9,713.1H876.2c-3,0-5.5-2.5-5.5-5.5v-97.7c0-3,2.5-5.5,5.5-5.5h64.6c0.4,0,0.9,0.1,1.3,0.2l3.1,0.8l114.3-68     c5.6-3.3,12-5.1,18.5-5.1c12.7,0,24.6,6.8,31.1,17.7c10.2,17.1,4.5,39.4-12.6,49.5l-51.3,30.6l0.8,0.2l0,0     c0.1,0,18.9,2.8,44.8,2.8c17.8,0,34.8-1.3,50.5-3.9c23.1-3.8,43.2-10.2,59.7-19.3c15.9-8.7,28.7-19.8,37.9-32.9     c0.3-0.4,0.6-0.8,1-1.1c0.5-0.4,13.1-10.4,31-10.4c10.6,0,20.7,3.4,30.2,10.2c2.2,1.5,2.9,4.4,1.8,6.8     C1302.4,583.8,1239.8,713.1,1057.9,713.1z M881.7,702.2h176.2c156.5,0,220.7-98.5,232.9-120.2c-6.4-3.7-13-5.6-19.9-5.6     c-12.1,0-21.3,6-23.6,7.6c-10.2,14.2-24,26.2-41.1,35.5c-17.6,9.6-38.9,16.5-63.2,20.5c-16.3,2.7-33.9,4-52.3,4     c-27.1,0-46.1-2.9-46.9-3l-14.2-3.5c-2.2-0.5-3.8-2.3-4.1-4.5c-0.3-2.2,0.7-4.4,2.6-5.5l62.8-37.4c11.9-7.1,15.9-22.6,8.8-34.5     c-6.9-11.6-22.8-15.7-34.5-8.8L949,616c-1.2,0.7-2.7,1-4.1,0.6l-4.7-1.1h-58.5V702.2z"/>
		</g>
	</g>
	<g>
		<rect x="801.8" y="590.4" fill="#939598" width="74.5" height="142.1"/>
		<path d="M876.2,738h-74.5c-3,0-5.5-2.5-5.5-5.5V590.4c0-3,2.5-5.5,5.5-5.5h74.5c3,0,5.5,2.5,5.5,5.5v142.1    C881.7,735.6,879.3,738,876.2,738z M807.3,727.1h63.5V595.9h-63.5V727.1z"/>
	</g>
	<g>
		<rect x="878.1" y="109.2" fill="#FFFFFF" width="384.7" height="384.7"/>
		<path d="M1262.8,499.4H878.1c-3,0-5.5-2.5-5.5-5.5V109.2c0-3,2.5-5.5,5.5-5.5h384.7c3,0,5.5,2.5,5.5,5.5v384.7    C1268.3,496.9,1265.9,499.4,1262.8,499.4z M883.6,488.4h373.8V114.7H883.6V488.4z"/>
	</g>
	<g>
		<g>
			<polygon fill="#B7C2FF" points="1031.1,414.9 929.7,313.5 976.2,267 1031.1,321.9 1164.8,188.2 1211.3,234.7    "/>
			<path d="M1031.1,420.4c-1.4,0-2.8-0.5-3.9-1.6L925.8,317.4c-2.1-2.1-2.1-5.6,0-7.8l46.5-46.5c2.1-2.1,5.7-2.1,7.8,0l51,51     l129.8-129.8c2.1-2.1,5.7-2.1,7.8,0l46.5,46.5c2.1,2.1,2.1,5.6,0,7.8l-180.2,180.2C1033.9,419.9,1032.5,420.4,1031.1,420.4z      M937.4,313.5l93.6,93.6l172.5-172.5l-38.8-38.8l-129.8,129.8c-2.1,2.1-5.6,2.1-7.8,0l-51-51L937.4,313.5z"/>
		</g>
	</g>
	<g>
		<rect x="1094.1" y="328.6" fill="#FFE4C4" width="86.3" height="86.3"/>
		<path d="M1180.4,420.4h-86.3c-3,0-5.5-2.5-5.5-5.5v-86.3c0-3,2.5-5.5,5.5-5.5h86.3c3,0,5.5,2.5,5.5,5.5v86.3    C1185.9,417.9,1183.4,420.4,1180.4,420.4z M1099.6,409.4h75.3v-75.3h-75.3V409.4z"/>
	</g>
	<g>
		<path fill="#FFFFFF" d="M1167.8,327.6V297c0-16.9-13.7-30.5-30.5-30.5s-30.6,13.7-30.6,30.5v30.5H1167.8z"/>
		<path d="M1167.8,333.1h-61.1c-3,0-5.5-2.5-5.5-5.5V297c0-19.9,16.2-36,36-36c19.9,0,36,16.2,36,36v30.5    C1173.3,330.6,1170.8,333.1,1167.8,333.1z M1112.2,322.1h50.1V297c0-13.8-11.2-25.1-25.1-25.1c-13.8,0-25.1,11.2-25.1,25.1V322.1z    "/>
	</g>
	<g>
		<path d="M1137.3,396.5c-3,0-5.5-2.5-5.5-5.5v-38.5c0-3,2.5-5.5,5.5-5.5c3,0,5.5,2.5,5.5,5.5V391    C1142.7,394,1140.3,396.5,1137.3,396.5z"/>
	</g>
	<g>
		<g>
			<path fill="#F1F2F2" d="M956.5,829.8c-69.1,69.1-69.1,181.1,0,250.2c69.1,69.1,181.1,69.1,250.2,0     c60.1-60.1,67.9-152.7,23.4-221.2l21.5-73.8l-73.8,21.5C1109.2,762,1016.6,769.7,956.5,829.8z"/>
			<path d="M1081.6,1137.3c-48.7,0-94.5-19-129-53.4c-34.4-34.4-53.4-80.3-53.4-129c0-48.7,19-94.5,53.4-129     c34.4-34.4,80.2-53.4,128.9-53.4c34.5,0,68,9.6,97.1,27.9l71.4-20.8c1.9-0.6,4,0,5.4,1.4c1.4,1.4,1.9,3.5,1.4,5.4l-20.8,71.4     c44.9,71.4,34.4,166.1-25.5,225.9C1176.1,1118.4,1130.3,1137.3,1081.6,1137.3z M1081.5,783.5c-45.8,0-88.8,17.8-121.2,50.2     c-32.4,32.4-50.2,75.4-50.2,121.2c0,45.8,17.8,88.8,50.2,121.2c32.4,32.4,75.4,50.2,121.2,50.2c45.8,0,88.8-17.8,121.2-50.2     c56.8-56.8,66.4-147,22.7-214.3c-0.9-1.3-1.1-3-0.7-4.5l18.7-64.3l-64.2,18.7c-1.5,0.4-3.2,0.2-4.5-0.7     C1147,793,1114.8,783.5,1081.5,783.5z"/>
		</g>
		<g>
			<line fill="#FFFFFF" x1="985.6" y1="863.3" x2="1182.6" y2="863.3"/>
			<path d="M1182.6,868.8H985.6c-3,0-5.5-2.5-5.5-5.5s2.5-5.5,5.5-5.5h196.9c3,0,5.5,2.5,5.5,5.5S1185.6,868.8,1182.6,868.8z"/>
		</g>
		<g>
			<line fill="#FFFFFF" x1="985.6" y1="1042.9" x2="1182.6" y2="1042.9"/>
			<path d="M1182.6,1048.3H985.6c-3,0-5.5-2.5-5.5-5.5c0-3,2.5-5.5,5.5-5.5h196.9c3,0,5.5,2.5,5.5,5.5     C1188.1,1045.9,1185.6,1048.3,1182.6,1048.3z"/>
		</g>
		<g>
			<line fill="#FFFFFF" x1="956.2" y1="923.1" x2="1052.1" y2="923.1"/>
			<path d="M1052.1,928.6h-96c-3,0-5.5-2.5-5.5-5.5c0-3,2.5-5.5,5.5-5.5h96c3,0,5.5,2.5,5.5,5.5     C1057.6,926.2,1055.2,928.6,1052.1,928.6z"/>
		</g>
		<g>
			<line fill="#FFFFFF" x1="1091.4" y1="923.1" x2="1135.3" y2="923.1"/>
			<path d="M1135.3,928.6h-43.9c-3,0-5.5-2.5-5.5-5.5c0-3,2.5-5.5,5.5-5.5h43.9c3,0,5.5,2.5,5.5,5.5     C1140.8,926.2,1138.3,928.6,1135.3,928.6z"/>
		</g>
		<g>
			<line fill="#FFFFFF" x1="956.2" y1="983" x2="985.6" y2="983"/>
			<path d="M985.6,988.5h-29.5c-3,0-5.5-2.5-5.5-5.5c0-3,2.5-5.5,5.5-5.5h29.5c3,0,5.5,2.5,5.5,5.5     C991.1,986,988.7,988.5,985.6,988.5z"/>
		</g>
		<g>
			<line fill="#FFFFFF" x1="1174.8" y1="923.1" x2="1218.7" y2="923.1"/>
			<path d="M1218.7,928.6h-43.9c-3,0-5.5-2.5-5.5-5.5c0-3,2.5-5.5,5.5-5.5h43.9c3,0,5.5,2.5,5.5,5.5     C1224.2,926.2,1221.7,928.6,1218.7,928.6z"/>
		</g>
		<g>
			<line fill="#FFFFFF" x1="1031.6" y1="983" x2="1218.7" y2="983"/>
			<path d="M1218.7,988.5h-187.1c-3,0-5.5-2.5-5.5-5.5c0-3,2.5-5.5,5.5-5.5h187.1c3,0,5.5,2.5,5.5,5.5     C1224.2,986,1221.7,988.5,1218.7,988.5z"/>
		</g>
	</g>
	<g>
		<g>
			<path fill="#B7C2FF" d="M1038.6,1146.8c69.1-69.1,69.1-181.1,0-250.2c-69.1-69.1-181.1-69.1-250.2,0     c-60.1,60.1-67.9,152.7-23.4,221.2l-21.5,73.8l73.8-21.5C885.9,1214.6,978.5,1206.9,1038.6,1146.8z"/>
			<path d="M913.6,1204C913.6,1204,913.6,1204,913.6,1204c-34.5,0-68.1-9.7-97.1-27.9l-71.4,20.8c-1.9,0.5-4,0-5.4-1.4     c-1.4-1.4-1.9-3.5-1.4-5.4l20.8-71.4c-44.9-71.4-34.4-166.1,25.5-225.9c34.4-34.5,80.3-53.4,129-53.4c48.7,0,94.5,19,129,53.4     c34.4,34.4,53.4,80.3,53.4,129c0,48.7-19,94.5-53.4,129C1008,1185.1,962.3,1204,913.6,1204z M817.3,1164.7c1,0,2.1,0.3,3,0.9     c27.7,18,60,27.5,93.2,27.5h0c45.8,0,88.8-17.8,121.1-50.2c32.4-32.4,50.2-75.4,50.2-121.2c0-45.8-17.8-88.8-50.2-121.2     c-32.4-32.4-75.4-50.2-121.2-50.2c-45.8,0-88.8,17.8-121.2,50.2c-56.8,56.8-66.4,147-22.7,214.3c0.9,1.3,1.1,3,0.7,4.5     l-18.7,64.3l64.2-18.7C816.3,1164.7,816.8,1164.7,817.3,1164.7z"/>
		</g>
		<g>
			<path fill="#939598" d="M1007.9,1116c-52.1,52.1-136.7,52.1-188.8,0c-52.1-52.1-52.1-136.6,0-188.8c52.1-52.1,136.6-52.1,188.8,0     C1060,979.4,1060,1063.9,1007.9,1116z"/>
			<path d="M913.5,1160.6c-37.1,0-72-14.5-98.3-40.7c-26.2-26.2-40.7-61.1-40.7-98.3c0-37.1,14.5-72,40.7-98.3     c26.2-26.3,61.1-40.7,98.3-40.7c37.1,0,72,14.5,98.3,40.7c26.2,26.2,40.7,61.1,40.7,98.3c0,37.1-14.5,72-40.7,98.3     C985.5,1146.2,950.6,1160.6,913.5,1160.6z M913.5,893.7c-34.2,0-66.3,13.3-90.5,37.5c-24.2,24.2-37.5,56.3-37.5,90.5     s13.3,66.3,37.5,90.5c24.2,24.2,56.3,37.5,90.5,37.5c34.2,0,66.3-13.3,90.5-37.5c24.2-24.2,37.5-56.3,37.5-90.5     s-13.3-66.3-37.5-90.5C979.8,907,947.7,893.7,913.5,893.7z"/>
		</g>
		<g>
			<path fill="#FFFFFF" d="M952.7,987.4c0-21.7-17.6-39.3-39.3-39.3c-21.7,0-39.3,17.6-39.3,39.3c0,15,8.6,28,21,34.6v73.3h36.6     v-73.3C944.2,1015.3,952.7,1002.4,952.7,987.4z"/>
			<path d="M931.8,1100.7h-36.6c-3,0-5.5-2.5-5.5-5.5v-70.1c-13-8.2-21-22.4-21-37.7c0-24.7,20.1-44.7,44.7-44.7     c24.7,0,44.7,20.1,44.7,44.7c0,15.4-8,29.5-21,37.7v70.1C937.2,1098.2,934.8,1100.7,931.8,1100.7z M900.7,1089.7h25.6v-67.8     c0-2,1.1-3.9,2.9-4.8c11.1-5.9,18.1-17.3,18.1-29.7c0-18.6-15.2-33.8-33.8-33.8c-18.6,0-33.8,15.2-33.8,33.8     c0,12.4,6.9,23.8,18.1,29.7c1.8,1,2.9,2.8,2.9,4.8V1089.7z"/>
		</g>
	</g>
	<g>
		<path fill="#F1F2F2" d="M614.7,923.6h-16.9c-13.2-32-44.7-54.6-81.6-54.6h-15.9c0-1.3,0.2-2.5,0.2-3.7    c0-74.3-60.2-134.5-134.4-134.5S231.7,791,231.7,865.3c0,1.3,0.2,2.5,0.2,3.7h-23.4c-48.7,0-88.3,39.5-88.3,88.3    c0,48.8,39.5,88.3,88.3,88.3h160h147.9h98.4c33.7,0,61-27.3,61-60.9C675.7,950.9,648.4,923.6,614.7,923.6z"/>
		<path d="M614.7,1051H208.4c-51.7,0-93.7-42.1-93.7-93.8c0-51.7,42.1-93.7,93.7-93.7h17.8c0.9-76.4,63.3-138.2,139.9-138.2    s139,61.8,139.9,138.2h10.3c36.9,0,69.9,21.3,85.2,54.6h13.3c36.6,0,66.4,29.8,66.4,66.4C681.2,1021.2,651.4,1051,614.7,1051z     M208.4,874.5c-45.6,0-82.8,37.1-82.8,82.8c0,45.6,37.1,82.8,82.8,82.8h406.3c30.6,0,55.5-24.9,55.5-55.5    c0-30.6-24.9-55.5-55.5-55.5h-16.9c-2.2,0-4.2-1.3-5.1-3.4c-12.8-31.1-42.9-51.2-76.5-51.2h-15.9c-1.5,0-2.9-0.6-3.9-1.7    c-1-1-1.6-2.5-1.6-4l0.1-1.9c0-0.6,0.1-1.1,0.1-1.7c0-71.1-57.9-129-129-129c-71.1,0-129,57.9-129,129c0,0.6,0,1.1,0.1,1.7    l0.1,1.9c0,1.5-0.5,2.9-1.6,4c-1,1.1-2.4,1.7-3.9,1.7H208.4z"/>
	</g>
	<g>
		<g>
			<rect x="273.8" y="979.3" fill="#FF9787" width="187.2" height="187.2"/>
			<path d="M461,1172H273.8c-3,0-5.5-2.5-5.5-5.5V979.3c0-3,2.5-5.5,5.5-5.5H461c3,0,5.5,2.5,5.5,5.5v187.2     C466.5,1169.6,464.1,1172,461,1172z M279.3,1161.1h176.3V984.8H279.3V1161.1z"/>
		</g>
		<g>
			<path fill="#FFFFFF" d="M397.3,1054.4c0-16.5-13.4-29.9-29.9-29.9s-29.9,13.4-29.9,29.9c0,11.4,6.5,21.2,15.9,26.3v40.7h28v-40.7     C390.8,1075.7,397.3,1065.8,397.3,1054.4z"/>
			<path d="M381.4,1126.9h-28c-3,0-5.5-2.5-5.5-5.5v-37.6c-9.9-6.5-15.9-17.5-15.9-29.4c0-19.5,15.9-35.4,35.4-35.4     s35.4,15.9,35.4,35.4c0,11.9-6,22.9-15.9,29.4v37.6C386.9,1124.4,384.4,1126.9,381.4,1126.9z M358.9,1115.9h17v-35.2     c0-2,1.1-3.9,2.9-4.8c8-4.3,13-12.5,13-21.4c0-13.5-11-24.4-24.4-24.4s-24.4,11-24.4,24.4c0,8.9,5,17.2,13,21.4     c1.8,1,2.9,2.8,2.9,4.8V1115.9z"/>
		</g>
		<g>
			<g>
				<path fill="#FFFFFF" d="M438.4,979.3h-28.5v-51.1c0-23.4-19.1-42.5-42.5-42.5c-23.4,0-42.5,19-42.5,42.5v51.1h-28.5v-51.1      c0-39.1,31.9-71,71-71s71,31.9,71,71V979.3z"/>
				<path d="M438.4,984.8h-28.5c-3,0-5.5-2.5-5.5-5.5v-51.1c0-20.4-16.6-37-37-37c-20.4,0-37,16.6-37,37v51.1c0,3-2.5,5.5-5.5,5.5      h-28.5c-3,0-5.5-2.5-5.5-5.5v-51.1c0-42.2,34.3-76.5,76.5-76.5c42.2,0,76.5,34.3,76.5,76.5v51.1      C443.9,982.3,441.4,984.8,438.4,984.8z M415.4,973.8h17.6v-45.6c0-36.1-29.4-65.5-65.5-65.5s-65.5,29.4-65.5,65.5v45.6h17.5      v-45.6c0-26.4,21.5-48,48-48c26.4,0,48,21.5,48,48V973.8z"/>
			</g>
		</g>
	</g>
	<g>
		<polygon fill="#FFFFFF" points="581.1,1218.6 120.1,1218.6 120.1,1468.1 689,1468.1 689,1218.6 689,1102.6   "/>
		<path d="M689,1473.6H120.1c-3,0-5.5-2.5-5.5-5.5v-249.5c0-3,2.5-5.5,5.5-5.5h458.5L685,1098.8c1.5-1.7,3.9-2.2,6-1.4    c2.1,0.8,3.5,2.8,3.5,5.1v365.6C694.5,1471.2,692.1,1473.6,689,1473.6z M125.6,1462.7h557.9v-346.1l-98.5,105.8    c-1,1.1-2.5,1.7-4,1.7H125.6V1462.7z"/>
	</g>
	<g>
		<path fill="#FF9787" d="M960.4,1350.1c0,58.4-47.4,105.8-105.8,105.8c-58.4,0-105.8-47.4-105.8-105.8    c0-58.5,47.4-105.8,105.8-105.8C913.1,1244.3,960.4,1291.6,960.4,1350.1z"/>
		<path d="M854.6,1461.3c-61.4,0-111.3-49.9-111.3-111.3c0-61.4,49.9-111.3,111.3-111.3c61.4,0,111.3,49.9,111.3,111.3    C965.9,1411.4,916,1461.3,854.6,1461.3z M854.6,1249.7c-55.3,0-100.3,45-100.3,100.3c0,55.3,45,100.3,100.3,100.3    c55.3,0,100.3-45,100.3-100.3C955,1294.7,910,1249.7,854.6,1249.7z"/>
	</g>
	<g>
		<path fill="#FFFFFF" d="M1262.8,1350.1c0,58.4-47.4,105.8-105.8,105.8c-58.4,0-105.8-47.4-105.8-105.8    c0-58.5,47.4-105.8,105.8-105.8C1215.5,1244.3,1262.8,1291.6,1262.8,1350.1z"/>
		<path d="M1157,1461.3c-61.4,0-111.3-49.9-111.3-111.3c0-61.4,49.9-111.3,111.3-111.3c61.4,0,111.3,49.9,111.3,111.3    C1268.3,1411.4,1218.4,1461.3,1157,1461.3z M1157,1249.7c-55.3,0-100.3,45-100.3,100.3c0,55.3,45,100.3,100.3,100.3    s100.3-45,100.3-100.3C1257.4,1294.7,1212.3,1249.7,1157,1249.7z"/>
	</g>
	<g>
		<path d="M387,1440.7c-3,0-5.5-2.5-5.5-5.5v-181c0-3,2.5-5.5,5.5-5.5c3,0,5.5,2.5,5.5,5.5v181    C392.5,1438.3,390.1,1440.7,387,1440.7z"/>
	</g>
	<g>
		<rect x="159.8" y="1275.3" fill="#B7C2FF" width="185.5" height="41.1"/>
		<path d="M345.3,1321.9H159.8c-3,0-5.5-2.5-5.5-5.5v-41.1c0-3,2.5-5.5,5.5-5.5h185.5c3,0,5.5,2.5,5.5,5.5v41.1    C350.8,1319.5,348.3,1321.9,345.3,1321.9z M165.2,1311h174.6v-30.2H165.2V1311z"/>
	</g>
	<g>
		<rect x="159.8" y="1373.1" fill="#B7C2FF" width="185.5" height="41.1"/>
		<path d="M345.3,1419.7H159.8c-3,0-5.5-2.5-5.5-5.5v-41.1c0-3,2.5-5.5,5.5-5.5h185.5c3,0,5.5,2.5,5.5,5.5v41.1    C350.8,1417.3,348.3,1419.7,345.3,1419.7z M165.2,1408.7h174.6v-30.2H165.2V1408.7z"/>
	</g>
	<g>
		<path d="M577.4,1301.4H423.9c-3,0-5.5-2.5-5.5-5.5c0-3,2.5-5.5,5.5-5.5h151.3l30.6-30.6c2.1-2.1,5.6-2.1,7.8,0    c2.1,2.1,2.1,5.6,0,7.8l-32.2,32.2C580.3,1300.8,578.9,1301.4,577.4,1301.4z"/>
	</g>
	<g>
		<path d="M516.8,1399.1h-92.9c-3,0-5.5-2.5-5.5-5.5c0-3,2.5-5.5,5.5-5.5h90.6l35.9-35.9c1-1,2.4-1.6,3.9-1.6h64.3    c3,0,5.5,2.5,5.5,5.5c0,3-2.5,5.5-5.5,5.5h-62l-35.9,35.9C519.6,1398.6,518.2,1399.1,516.8,1399.1z"/>
	</g>
	<g>
		<path fill="#F1F2F2" d="M643.2,1250.8c0,11-8.9,19.9-19.9,19.9c-11,0-19.9-8.9-19.9-19.9c0-11,8.9-19.9,19.9-19.9    C634.3,1230.9,643.2,1239.8,643.2,1250.8z"/>
		<path d="M623.3,1276.2c-14,0-25.4-11.4-25.4-25.4s11.4-25.4,25.4-25.4c14,0,25.4,11.4,25.4,25.4S637.3,1276.2,623.3,1276.2z     M623.3,1236.4c-7.9,0-14.4,6.5-14.4,14.4s6.5,14.4,14.4,14.4c7.9,0,14.4-6.5,14.4-14.4S631.2,1236.4,623.3,1236.4z"/>
	</g>
	<g>
		<path fill="#F1F2F2" d="M658.3,1356.2c0,11-8.9,19.9-19.9,19.9c-11,0-19.9-8.9-19.9-19.9c0-11,8.9-19.9,19.9-19.9    C649.4,1336.3,658.3,1345.2,658.3,1356.2z"/>
		<path d="M638.4,1381.5c-14,0-25.4-11.4-25.4-25.4s11.4-25.4,25.4-25.4c14,0,25.4,11.4,25.4,25.4S652.4,1381.5,638.4,1381.5z     M638.4,1341.8c-7.9,0-14.4,6.5-14.4,14.4s6.5,14.4,14.4,14.4c7.9,0,14.4-6.5,14.4-14.4S646.4,1341.8,638.4,1341.8z"/>
	</g>
	<g>
		<g>
			<path d="M1138.6,1368.2l-10.6,32h-13.6l34.6-101.8h15.9l34.7,101.8h-14l-10.9-32H1138.6z M1172,1357.9l-10-29.3     c-2.3-6.6-3.8-12.7-5.3-18.6h-0.3c-1.5,6-3.2,12.2-5.1,18.4l-10,29.4H1172z"/>
		</g>
	</g>
	<g>
		<g>
			<path d="M909.6,1330H799.7c-3,0-5.5-2.5-5.5-5.5c0-3,2.5-5.5,5.5-5.5h109.9c3,0,5.5,2.5,5.5,5.5     C915,1327.5,912.6,1330,909.6,1330z"/>
		</g>
		<g>
			<path d="M909.6,1381.1H799.7c-3,0-5.5-2.5-5.5-5.5s2.5-5.5,5.5-5.5h109.9c3,0,5.5,2.5,5.5,5.5S912.6,1381.1,909.6,1381.1z"/>
		</g>
		<g>
			<path d="M880.2,1410.5c-3,0-5.5-2.5-5.5-5.5v-109.9c0-3,2.5-5.5,5.5-5.5c3,0,5.5,2.5,5.5,5.5V1405     C885.6,1408,883.2,1410.5,880.2,1410.5z"/>
		</g>
		<g>
			<path d="M829.1,1410.5c-3,0-5.5-2.5-5.5-5.5v-109.9c0-3,2.5-5.5,5.5-5.5c3,0,5.5,2.5,5.5,5.5V1405     C834.6,1408,832.1,1410.5,829.1,1410.5z"/>
		</g>
	</g>
	<g>
		<path d="M1051.2,1355.6h-90.8c-3,0-5.5-2.5-5.5-5.5c0-3,2.5-5.5,5.5-5.5h90.8c3,0,5.5,2.5,5.5,5.5    C1056.7,1353.1,1054.3,1355.6,1051.2,1355.6z"/>
	</g>
	<g>
		<path d="M1157,1249.7c-3,0-5.5-2.5-5.5-5.5V1115c0-3,2.5-5.5,5.5-5.5s5.5,2.5,5.5,5.5v129.3    C1162.5,1247.3,1160.1,1249.7,1157,1249.7z"/>
	</g>
	<g>
		<polygon fill="#A3AEE6" points="204.2,193.3 204.2,109.2 120.1,193.3   "/>
		<path d="M204.2,198.7h-84.1c-2.2,0-4.2-1.3-5.1-3.4c-0.9-2-0.4-4.4,1.2-6l84.1-84.1c1.6-1.6,3.9-2,6-1.2c2.1,0.8,3.4,2.8,3.4,5.1    v84.1C209.7,196.3,207.3,198.7,204.2,198.7z M133.4,187.8h65.4v-65.4L133.4,187.8z"/>
	</g>
</g>
</svg>
