<?xml version="1.0" encoding="UTF-8"?>
<svg xmlns="http://www.w3.org/2000/svg" xmlns:xlink="http://www.w3.org/1999/xlink" width="3063.75" height="3304.95" viewBox="0 0 3063.75 3304.95">
<defs>
<clipPath id="clip-0">
<path clip-rule="nonzero" d="M 319 0 L 2745 0 L 2745 2018 L 319 2018 Z M 319 0 "/>
</clipPath>
<clipPath id="clip-1">
<path clip-rule="evenodd" d="M 319.175781 2017.761719 L 319.175781 442.238281 C 319.175781 198.390625 517.558594 0.0117188 761.417969 0.0117188 L 2141.679688 0.0117188 C 2134.140625 0.109375 2126.570312 1.640625 2119.398438 4.628906 C 2096.761719 14.011719 2082 36.070312 2082 60.589844 L 2082 463.050781 C 2082 573.050781 2171.441406 662.5 2281.429688 662.5 L 2684.578125 662.5 C 2714.808594 662.5 2739.839844 640.429688 2744.441406 611.539062 L 2744.441406 2017.761719 L 319.175781 2017.761719 "/>
</clipPath>
<linearGradient id="linear-pattern-0" gradientUnits="userSpaceOnUse" x1="-0.0000000262699" y1="0" x2="0.999995" y2="0" gradientTransform="matrix(-0.0000882, -2017.76, 2017.76, -0.0000882, 1531.81, 2017.76)">
<stop offset="0" stop-color="rgb(89.802551%, 90.194702%, 89.802551%)" stop-opacity="1"/>
<stop offset="0.03125" stop-color="rgb(89.64386%, 90.023804%, 89.637756%)" stop-opacity="1"/>
<stop offset="0.0625" stop-color="rgb(89.324951%, 89.680481%, 89.306641%)" stop-opacity="1"/>
<stop offset="0.09375" stop-color="rgb(89.006042%, 89.337158%, 88.975525%)" stop-opacity="1"/>
<stop offset="0.125" stop-color="rgb(88.687134%, 88.993835%, 88.644409%)" stop-opacity="1"/>
<stop offset="0.15625" stop-color="rgb(88.368225%, 88.650513%, 88.313293%)" stop-opacity="1"/>
<stop offset="0.1875" stop-color="rgb(88.049316%, 88.30719%, 87.982178%)" stop-opacity="1"/>
<stop offset="0.21875" stop-color="rgb(87.731934%, 87.963867%, 87.651062%)" stop-opacity="1"/>
<stop offset="0.25" stop-color="rgb(87.413025%, 87.620544%, 87.321472%)" stop-opacity="1"/>
<stop offset="0.28125" stop-color="rgb(87.094116%, 87.278748%, 86.990356%)" stop-opacity="1"/>
<stop offset="0.3125" stop-color="rgb(86.775208%, 86.935425%, 86.659241%)" stop-opacity="1"/>
<stop offset="0.34375" stop-color="rgb(86.456299%, 86.592102%, 86.328125%)" stop-opacity="1"/>
<stop offset="0.375" stop-color="rgb(86.138916%, 86.248779%, 85.997009%)" stop-opacity="1"/>
<stop offset="0.40625" stop-color="rgb(85.820007%, 85.905457%, 85.665894%)" stop-opacity="1"/>
<stop offset="0.4375" stop-color="rgb(85.501099%, 85.562134%, 85.336304%)" stop-opacity="1"/>
<stop offset="0.46875" stop-color="rgb(85.18219%, 85.218811%, 85.005188%)" stop-opacity="1"/>
<stop offset="0.5" stop-color="rgb(84.863281%, 84.875488%, 84.674072%)" stop-opacity="1"/>
<stop offset="0.53125" stop-color="rgb(84.545898%, 84.532166%, 84.342957%)" stop-opacity="1"/>
<stop offset="0.5625" stop-color="rgb(84.22699%, 84.190369%, 84.011841%)" stop-opacity="1"/>
<stop offset="0.59375" stop-color="rgb(83.908081%, 83.847046%, 83.680725%)" stop-opacity="1"/>
<stop offset="0.625" stop-color="rgb(83.589172%, 83.503723%, 83.349609%)" stop-opacity="1"/>
<stop offset="0.65625" stop-color="rgb(83.270264%, 83.1604%, 83.02002%)" stop-opacity="1"/>
<stop offset="0.6875" stop-color="rgb(82.951355%, 82.817078%, 82.688904%)" stop-opacity="1"/>
<stop offset="0.71875" stop-color="rgb(82.633972%, 82.473755%, 82.357788%)" stop-opacity="1"/>
<stop offset="0.75" stop-color="rgb(82.315063%, 82.130432%, 82.026672%)" stop-opacity="1"/>
<stop offset="0.78125" stop-color="rgb(81.996155%, 81.787109%, 81.695557%)" stop-opacity="1"/>
<stop offset="0.8125" stop-color="rgb(81.677246%, 81.445312%, 81.364441%)" stop-opacity="1"/>
<stop offset="0.84375" stop-color="rgb(81.358337%, 81.10199%, 81.034851%)" stop-opacity="1"/>
<stop offset="0.875" stop-color="rgb(81.040955%, 80.758667%, 80.703735%)" stop-opacity="1"/>
<stop offset="0.90625" stop-color="rgb(80.722046%, 80.415344%, 80.37262%)" stop-opacity="1"/>
<stop offset="0.9375" stop-color="rgb(80.403137%, 80.072021%, 80.041504%)" stop-opacity="1"/>
<stop offset="0.96875" stop-color="rgb(80.084229%, 79.728699%, 79.710388%)" stop-opacity="1"/>
<stop offset="1" stop-color="rgb(79.76532%, 79.385376%, 79.379272%)" stop-opacity="1"/>
</linearGradient>
<clipPath id="clip-2">
<path clip-rule="nonzero" d="M 2082 0 L 2746 0 L 2746 663 L 2082 663 Z M 2082 0 "/>
</clipPath>
<clipPath id="clip-3">
<path clip-rule="evenodd" d="M 2684.578125 662.5 C 2684.421875 662.5 2684.160156 662.5 2683.871094 662.5 L 2281.429688 662.5 C 2171.441406 662.5 2082 573.050781 2082 463.050781 L 2082 0.0117188 L 2141.679688 0.0117188 C 2157.671875 -0.238281 2173.511719 5.820312 2185.410156 17.75 L 2721.539062 553.890625 C 2735.878906 564.960938 2745.199219 582.371094 2745.199219 601.929688 C 2745.199219 605.199219 2744.941406 608.421875 2744.441406 611.539062 L 2744.441406 662.5 L 2684.578125 662.5 "/>
</clipPath>
<linearGradient id="linear-pattern-1" gradientUnits="userSpaceOnUse" x1="0.185603" y1="0" x2="0.81434" y2="0" gradientTransform="matrix(-0.00004606, -1053.7, 1053.7, -0.00004606, 2413.6, 858.07)">
<stop offset="0" stop-color="rgb(79.748535%, 78.790283%, 78.717041%)" stop-opacity="1"/>
<stop offset="0.0625" stop-color="rgb(79.554749%, 78.620911%, 78.540039%)" stop-opacity="1"/>
<stop offset="0.125" stop-color="rgb(79.170227%, 78.282166%, 78.186035%)" stop-opacity="1"/>
<stop offset="0.1875" stop-color="rgb(78.78418%, 77.941895%, 77.830505%)" stop-opacity="1"/>
<stop offset="0.25" stop-color="rgb(78.399658%, 77.603149%, 77.476501%)" stop-opacity="1"/>
<stop offset="0.3125" stop-color="rgb(78.013611%, 77.264404%, 77.122498%)" stop-opacity="1"/>
<stop offset="0.375" stop-color="rgb(77.629089%, 76.925659%, 76.768494%)" stop-opacity="1"/>
<stop offset="0.4375" stop-color="rgb(77.243042%, 76.586914%, 76.412964%)" stop-opacity="1"/>
<stop offset="0.5" stop-color="rgb(76.858521%, 76.246643%, 76.05896%)" stop-opacity="1"/>
<stop offset="0.5625" stop-color="rgb(76.472473%, 75.907898%, 75.704956%)" stop-opacity="1"/>
<stop offset="0.625" stop-color="rgb(76.087952%, 75.569153%, 75.349426%)" stop-opacity="1"/>
<stop offset="0.6875" stop-color="rgb(75.701904%, 75.230408%, 74.995422%)" stop-opacity="1"/>
<stop offset="0.75" stop-color="rgb(75.317383%, 74.891663%, 74.641418%)" stop-opacity="1"/>
<stop offset="0.8125" stop-color="rgb(74.932861%, 74.552917%, 74.287415%)" stop-opacity="1"/>
<stop offset="0.875" stop-color="rgb(74.546814%, 74.212646%, 73.931885%)" stop-opacity="1"/>
<stop offset="0.9375" stop-color="rgb(74.162292%, 73.873901%, 73.577881%)" stop-opacity="1"/>
<stop offset="1" stop-color="rgb(73.776245%, 73.535156%, 73.223877%)" stop-opacity="1"/>
</linearGradient>
<clipPath id="clip-4">
<path clip-rule="nonzero" d="M 0 2017 L 3063.75 2017 L 3063.75 3304.949219 L 0 3304.949219 Z M 0 2017 "/>
</clipPath>
<clipPath id="clip-5">
<path clip-rule="evenodd" d="M 2786.75 3304.949219 L 277.035156 3304.949219 C 124.273438 3304.949219 0 3180.660156 0 3027.898438 L 0 2294.761719 C 0 2142.050781 124.289062 2017.761719 277.035156 2017.761719 L 2786.75 2017.761719 C 2939.488281 2017.761719 3063.75 2142.050781 3063.75 2294.761719 L 3063.75 3027.898438 C 3063.75 3180.691406 2939.488281 3304.949219 2786.75 3304.949219 "/>
</clipPath>
<linearGradient id="linear-pattern-2" gradientUnits="userSpaceOnUse" x1="-0.0000000899516" y1="0" x2="1" y2="0" gradientTransform="matrix(-0.00005626, -1287.19, 1287.19, -0.00005626, 1531.87, 3304.949951)">
<stop offset="0" stop-color="rgb(96.861267%, 92.547607%, 0%)" stop-opacity="1"/>
<stop offset="0.03125" stop-color="rgb(96.910095%, 92.356873%, 0.0183105%)" stop-opacity="1"/>
<stop offset="0.0625" stop-color="rgb(97.009277%, 91.976929%, 0.0549316%)" stop-opacity="1"/>
<stop offset="0.09375" stop-color="rgb(97.106934%, 91.596985%, 0.0915527%)" stop-opacity="1"/>
<stop offset="0.125" stop-color="rgb(97.20459%, 91.218567%, 0.128174%)" stop-opacity="1"/>
<stop offset="0.15625" stop-color="rgb(97.302246%, 90.838623%, 0.164795%)" stop-opacity="1"/>
<stop offset="0.1875" stop-color="rgb(97.401428%, 90.458679%, 0.201416%)" stop-opacity="1"/>
<stop offset="0.21875" stop-color="rgb(97.499084%, 90.078735%, 0.238037%)" stop-opacity="1"/>
<stop offset="0.25" stop-color="rgb(97.596741%, 89.698792%, 0.274658%)" stop-opacity="1"/>
<stop offset="0.28125" stop-color="rgb(97.694397%, 89.318848%, 0.311279%)" stop-opacity="1"/>
<stop offset="0.3125" stop-color="rgb(97.793579%, 88.938904%, 0.3479%)" stop-opacity="1"/>
<stop offset="0.34375" stop-color="rgb(97.891235%, 88.55896%, 0.384521%)" stop-opacity="1"/>
<stop offset="0.375" stop-color="rgb(97.988892%, 88.179016%, 0.422668%)" stop-opacity="1"/>
<stop offset="0.40625" stop-color="rgb(98.086548%, 87.799072%, 0.45929%)" stop-opacity="1"/>
<stop offset="0.4375" stop-color="rgb(98.18573%, 87.419128%, 0.495911%)" stop-opacity="1"/>
<stop offset="0.46875" stop-color="rgb(98.283386%, 87.039185%, 0.532532%)" stop-opacity="1"/>
<stop offset="0.5" stop-color="rgb(98.381042%, 86.659241%, 0.569153%)" stop-opacity="1"/>
<stop offset="0.53125" stop-color="rgb(98.478699%, 86.279297%, 0.605774%)" stop-opacity="1"/>
<stop offset="0.5625" stop-color="rgb(98.577881%, 85.899353%, 0.642395%)" stop-opacity="1"/>
<stop offset="0.59375" stop-color="rgb(98.675537%, 85.519409%, 0.679016%)" stop-opacity="1"/>
<stop offset="0.625" stop-color="rgb(98.773193%, 85.139465%, 0.715637%)" stop-opacity="1"/>
<stop offset="0.65625" stop-color="rgb(98.87085%, 84.759521%, 0.752258%)" stop-opacity="1"/>
<stop offset="0.6875" stop-color="rgb(98.970032%, 84.379578%, 0.788879%)" stop-opacity="1"/>
<stop offset="0.71875" stop-color="rgb(99.067688%, 83.999634%, 0.827026%)" stop-opacity="1"/>
<stop offset="0.75" stop-color="rgb(99.165344%, 83.61969%, 0.863647%)" stop-opacity="1"/>
<stop offset="0.78125" stop-color="rgb(99.263%, 83.239746%, 0.900269%)" stop-opacity="1"/>
<stop offset="0.8125" stop-color="rgb(99.362183%, 82.859802%, 0.93689%)" stop-opacity="1"/>
<stop offset="0.84375" stop-color="rgb(99.459839%, 82.479858%, 0.973511%)" stop-opacity="1"/>
<stop offset="0.875" stop-color="rgb(99.557495%, 82.099915%, 1.010132%)" stop-opacity="1"/>
<stop offset="0.90625" stop-color="rgb(99.655151%, 81.719971%, 1.046753%)" stop-opacity="1"/>
<stop offset="0.9375" stop-color="rgb(99.754333%, 81.340027%, 1.083374%)" stop-opacity="1"/>
<stop offset="0.96875" stop-color="rgb(99.85199%, 80.960083%, 1.119995%)" stop-opacity="1"/>
<stop offset="1" stop-color="rgb(99.949646%, 80.580139%, 1.156616%)" stop-opacity="1"/>
</linearGradient>
<clipPath id="clip-6">
<path clip-rule="nonzero" d="M 714 300 L 2350 300 L 2350 1789 L 714 1789 Z M 714 300 "/>
</clipPath>
<clipPath id="clip-7">
<path clip-rule="evenodd" d="M 1472.691406 812.390625 C 1464.390625 812.390625 1469.128906 812.980469 1461.269531 810.898438 C 1437.921875 804.691406 1423.910156 780.359375 1430.160156 757.039062 L 1542.390625 338.171875 C 1548.660156 314.839844 1572.929688 300.800781 1596.28125 307.070312 C 1619.570312 313.339844 1633.601562 337.621094 1627.378906 360.921875 L 1515.140625 779.789062 C 1510 798.988281 1492.570312 812.390625 1472.691406 812.390625 Z M 1151.410156 552.96875 L 1328.359375 729.910156 C 1345.53125 747.070312 1345.550781 774.941406 1328.359375 792.101562 C 1320.078125 800.359375 1308.949219 804.960938 1297.261719 804.960938 C 1285.539062 804.960938 1274.429688 800.359375 1266.160156 792.089844 L 1058.109375 584.039062 C 1049.871094 575.808594 1045.238281 564.589844 1045.238281 552.941406 C 1045.238281 541.269531 1049.871094 530.089844 1058.109375 521.851562 L 1266.160156 313.828125 C 1283.339844 296.628906 1311.179688 296.648438 1328.359375 313.808594 C 1345.550781 330.988281 1345.53125 358.871094 1328.359375 376.03125 Z M 1906.128906 552.96875 L 1729.179688 376.050781 C 1712 358.871094 1712.03125 331.019531 1729.179688 313.839844 C 1746.328125 296.660156 1774.199219 296.671875 1791.351562 313.839844 L 1999.398438 521.859375 C 2007.640625 530.109375 2012.269531 541.300781 2012.269531 552.941406 C 2012.269531 564.589844 2007.640625 575.808594 1999.398438 584.039062 L 1791.351562 792.089844 C 1783.101562 800.351562 1771.96875 804.960938 1760.28125 804.960938 C 1748.589844 804.960938 1737.449219 800.359375 1729.179688 792.089844 C 1712 774.929688 1712 747.050781 1729.179688 729.871094 Z M 2305.148438 1113.238281 L 758.570312 1113.238281 C 734.285156 1113.238281 714.589844 1093.550781 714.589844 1069.261719 C 714.589844 1044.96875 734.285156 1025.269531 758.570312 1025.269531 L 2305.148438 1025.269531 C 2329.421875 1025.269531 2349.121094 1044.96875 2349.121094 1069.261719 C 2349.121094 1093.550781 2329.421875 1113.238281 2305.148438 1113.238281 Z M 2305.148438 1451.089844 L 758.570312 1451.089844 C 734.285156 1451.089844 714.589844 1431.398438 714.589844 1407.109375 C 714.589844 1382.828125 734.285156 1363.128906 758.570312 1363.128906 L 2305.148438 1363.128906 C 2329.421875 1363.128906 2349.121094 1382.828125 2349.121094 1407.109375 C 2349.121094 1431.398438 2329.421875 1451.089844 2305.148438 1451.089844 Z M 2305.148438 1788.859375 L 758.570312 1788.859375 C 734.285156 1788.859375 714.589844 1769.191406 714.589844 1744.890625 C 714.589844 1720.601562 734.285156 1700.898438 758.570312 1700.898438 L 2305.148438 1700.898438 C 2329.421875 1700.898438 2349.121094 1720.601562 2349.121094 1744.890625 C 2349.121094 1769.191406 2329.421875 1788.859375 2305.148438 1788.859375 "/>
</clipPath>
<linearGradient id="linear-pattern-3" gradientUnits="userSpaceOnUse" x1="-0.0492152" y1="0" x2="1.052501" y2="0" gradientTransform="matrix(-0.00005921, -1354.46, 1354.46, -0.00005921, 1531.85, 1722.2)">
<stop offset="0" stop-color="rgb(54.508972%, 54.116821%, 54.116821%)" stop-opacity="1"/>
<stop offset="0.0625" stop-color="rgb(54.443359%, 54.05426%, 54.05426%)" stop-opacity="1"/>
<stop offset="0.09375" stop-color="rgb(54.263306%, 53.884888%, 53.884888%)" stop-opacity="1"/>
<stop offset="0.125" stop-color="rgb(54.032898%, 53.669739%, 53.669739%)" stop-opacity="1"/>
<stop offset="0.15625" stop-color="rgb(53.804016%, 53.453064%, 53.453064%)" stop-opacity="1"/>
<stop offset="0.1875" stop-color="rgb(53.575134%, 53.237915%, 53.237915%)" stop-opacity="1"/>
<stop offset="0.21875" stop-color="rgb(53.344727%, 53.02124%, 53.02124%)" stop-opacity="1"/>
<stop offset="0.25" stop-color="rgb(53.115845%, 52.804565%, 52.804565%)" stop-opacity="1"/>
<stop offset="0.28125" stop-color="rgb(52.885437%, 52.589417%, 52.589417%)" stop-opacity="1"/>
<stop offset="0.3125" stop-color="rgb(52.656555%, 52.372742%, 52.372742%)" stop-opacity="1"/>
<stop offset="0.34375" stop-color="rgb(52.426147%, 52.157593%, 52.157593%)" stop-opacity="1"/>
<stop offset="0.375" stop-color="rgb(52.197266%, 51.940918%, 51.940918%)" stop-opacity="1"/>
<stop offset="0.40625" stop-color="rgb(51.968384%, 51.725769%, 51.725769%)" stop-opacity="1"/>
<stop offset="0.4375" stop-color="rgb(51.737976%, 51.509094%, 51.509094%)" stop-opacity="1"/>
<stop offset="0.46875" stop-color="rgb(51.509094%, 51.292419%, 51.292419%)" stop-opacity="1"/>
<stop offset="0.5" stop-color="rgb(51.278687%, 51.077271%, 51.077271%)" stop-opacity="1"/>
<stop offset="0.53125" stop-color="rgb(51.049805%, 50.860596%, 50.860596%)" stop-opacity="1"/>
<stop offset="0.5625" stop-color="rgb(50.819397%, 50.645447%, 50.645447%)" stop-opacity="1"/>
<stop offset="0.59375" stop-color="rgb(50.590515%, 50.428772%, 50.428772%)" stop-opacity="1"/>
<stop offset="0.625" stop-color="rgb(50.361633%, 50.213623%, 50.213623%)" stop-opacity="1"/>
<stop offset="0.65625" stop-color="rgb(50.131226%, 49.996948%, 49.996948%)" stop-opacity="1"/>
<stop offset="0.6875" stop-color="rgb(49.902344%, 49.780273%, 49.780273%)" stop-opacity="1"/>
<stop offset="0.71875" stop-color="rgb(49.671936%, 49.565125%, 49.565125%)" stop-opacity="1"/>
<stop offset="0.75" stop-color="rgb(49.443054%, 49.34845%, 49.34845%)" stop-opacity="1"/>
<stop offset="0.78125" stop-color="rgb(49.214172%, 49.133301%, 49.133301%)" stop-opacity="1"/>
<stop offset="0.8125" stop-color="rgb(48.983765%, 48.916626%, 48.916626%)" stop-opacity="1"/>
<stop offset="0.84375" stop-color="rgb(48.754883%, 48.701477%, 48.701477%)" stop-opacity="1"/>
<stop offset="0.875" stop-color="rgb(48.524475%, 48.484802%, 48.484802%)" stop-opacity="1"/>
<stop offset="0.90625" stop-color="rgb(48.295593%, 48.268127%, 48.268127%)" stop-opacity="1"/>
<stop offset="0.9375" stop-color="rgb(48.065186%, 48.052979%, 48.052979%)" stop-opacity="1"/>
<stop offset="1" stop-color="rgb(47.895813%, 47.892761%, 47.892761%)" stop-opacity="1"/>
</linearGradient>
<clipPath id="clip-8">
<path clip-rule="nonzero" d="M 909 2334 L 2154 2334 L 2154 3009 L 909 3009 Z M 909 2334 "/>
</clipPath>
<clipPath id="clip-9">
<path clip-rule="evenodd" d="M 1847.109375 2735.039062 L 1635.179688 2402.449219 C 1622.199219 2382.089844 1628.320312 2354.71875 1648.679688 2341.75 C 1669.03125 2328.769531 1696.429688 2334.890625 1709.378906 2355.21875 L 1891.050781 2640.441406 L 2072.730469 2355.21875 C 2085.679688 2334.890625 2113.128906 2328.800781 2133.460938 2341.75 C 2153.808594 2354.699219 2159.910156 2382.121094 2146.960938 2402.449219 L 1935.019531 2735.039062 L 1935.019531 2964.890625 C 1935.019531 2989.160156 1915.371094 3008.859375 1891.078125 3008.859375 C 1866.78125 3008.859375 1847.109375 2989.160156 1847.109375 2964.890625 Z M 997.9375 2682.988281 L 1224.960938 2682.988281 C 1296.71875 2682.988281 1355.070312 2624.648438 1355.070312 2552.871094 C 1355.070312 2481.109375 1296.71875 2422.75 1224.960938 2422.75 L 997.9375 2422.75 Z M 997.964844 2770.921875 L 997.964844 2964.839844 C 997.964844 2989.160156 978.265625 3008.859375 953.957031 3008.859375 C 929.675781 3008.859375 909.976562 2989.160156 909.976562 2964.890625 L 909.976562 2378.78125 C 909.976562 2354.488281 929.675781 2334.808594 953.957031 2334.808594 L 1224.988281 2334.808594 C 1345.21875 2334.808594 1443.078125 2432.601562 1443.078125 2552.839844 C 1443.078125 2673.109375 1345.25 2770.921875 1224.988281 2770.921875 L 997.964844 2770.921875 "/>
</clipPath>
<linearGradient id="linear-pattern-4" gradientUnits="userSpaceOnUse" x1="-0.42257" y1="0" x2="1.448307" y2="0" gradientTransform="matrix(-0.00001589, -363.514, 363.514, -0.00001589, 1531.87, 2855.25)">
<stop offset="0" stop-color="rgb(54.508972%, 54.116821%, 54.116821%)" stop-opacity="1"/>
<stop offset="0.25" stop-color="rgb(54.35791%, 53.974915%, 53.974915%)" stop-opacity="1"/>
<stop offset="0.28125" stop-color="rgb(54.013062%, 53.649902%, 53.649902%)" stop-opacity="1"/>
<stop offset="0.3125" stop-color="rgb(53.622437%, 53.283691%, 53.283691%)" stop-opacity="1"/>
<stop offset="0.34375" stop-color="rgb(53.233337%, 52.915955%, 52.915955%)" stop-opacity="1"/>
<stop offset="0.375" stop-color="rgb(52.842712%, 52.549744%, 52.549744%)" stop-opacity="1"/>
<stop offset="0.40625" stop-color="rgb(52.453613%, 52.182007%, 52.182007%)" stop-opacity="1"/>
<stop offset="0.4375" stop-color="rgb(52.064514%, 51.815796%, 51.815796%)" stop-opacity="1"/>
<stop offset="0.46875" stop-color="rgb(51.673889%, 51.448059%, 51.448059%)" stop-opacity="1"/>
<stop offset="0.5" stop-color="rgb(51.28479%, 51.081848%, 51.081848%)" stop-opacity="1"/>
<stop offset="0.53125" stop-color="rgb(50.894165%, 50.715637%, 50.715637%)" stop-opacity="1"/>
<stop offset="0.5625" stop-color="rgb(50.505066%, 50.3479%, 50.3479%)" stop-opacity="1"/>
<stop offset="0.59375" stop-color="rgb(50.114441%, 49.981689%, 49.981689%)" stop-opacity="1"/>
<stop offset="0.625" stop-color="rgb(49.725342%, 49.613953%, 49.613953%)" stop-opacity="1"/>
<stop offset="0.65625" stop-color="rgb(49.336243%, 49.247742%, 49.247742%)" stop-opacity="1"/>
<stop offset="0.6875" stop-color="rgb(48.945618%, 48.881531%, 48.881531%)" stop-opacity="1"/>
<stop offset="0.71875" stop-color="rgb(48.556519%, 48.513794%, 48.513794%)" stop-opacity="1"/>
<stop offset="0.75" stop-color="rgb(48.165894%, 48.147583%, 48.147583%)" stop-opacity="1"/>
<stop offset="1" stop-color="rgb(47.906494%, 47.903442%, 47.903442%)" stop-opacity="1"/>
</linearGradient>
</defs>
<g clip-path="url(#clip-0)">
<g clip-path="url(#clip-1)">
<path fill-rule="nonzero" fill="url(#linear-pattern-0)" d="M 319.175781 2017.761719 L 2744.441406 2017.761719 L 2744.441406 0.0117188 L 319.175781 0.0117188 Z M 319.175781 2017.761719 "/>
</g>
</g>
<g clip-path="url(#clip-2)">
<g clip-path="url(#clip-3)">
<path fill-rule="nonzero" fill="url(#linear-pattern-1)" d="M 2082 662.5 L 2745.199219 662.5 L 2745.199219 0 L 2082 0 Z M 2082 662.5 "/>
</g>
</g>
<g clip-path="url(#clip-4)">
<g clip-path="url(#clip-5)">
<path fill-rule="nonzero" fill="url(#linear-pattern-2)" d="M 0 3304.949219 L 3063.75 3304.949219 L 3063.75 2017.761719 L 0 2017.761719 Z M 0 3304.949219 "/>
</g>
</g>
<g clip-path="url(#clip-6)">
<g clip-path="url(#clip-7)">
<path fill-rule="nonzero" fill="url(#linear-pattern-3)" d="M 714.589844 1788.859375 L 2349.121094 1788.859375 L 2349.121094 296.628906 L 714.589844 296.628906 Z M 714.589844 1788.859375 "/>
</g>
</g>
<g clip-path="url(#clip-8)">
<g clip-path="url(#clip-9)">
<path fill-rule="nonzero" fill="url(#linear-pattern-4)" d="M 909.976562 3008.859375 L 2159.910156 3008.859375 L 2159.910156 2328.769531 L 909.976562 2328.769531 Z M 909.976562 3008.859375 "/>
</g>
</g>
</svg>
